<?xml version="1.0" encoding="UTF-8"?>
<svg width="188px" height="32px" viewBox="0 0 188 32" version="1.1" xmlns="http://www.w3.org/2000/svg" xmlns:xlink="http://www.w3.org/1999/xlink">
    <title>Group 7</title>
    <defs>
        <path d="M8.03233129,0 C5.69462924,0.00737075836 3.66325489,0.714963561 2.18940288,2.18970489 L2.18940288,2.18970489 C0.71319224,3.66621521 0.00560175799,5.69995485 0,8.04090771 L0,8.04090771 L0,8.09663064 C0.0109086866,12.8286575 2.87517599,18.8036891 8.04088134,23.9691165 L8.04088134,23.9691165 C11.6484135,27.5778398 15.8332215,30.2027143 19.8243267,31.3602182 L19.8243267,31.3602182 C21.3005373,31.7883118 22.6939009,32 23.9769983,32 L23.9769983,32 C26.36718,32 28.374968,31.2638087 29.8190422,29.8200245 L29.8190422,29.8200245 C32.0382229,27.6008366 32.5863107,24.0507845 31.3601153,19.8243917 L31.3601153,19.8243917 C30.2029101,15.8335683 27.5780442,11.6490413 23.9690379,8.04061288 L23.9690379,8.04061288 C18.8033326,2.87430093 12.8286154,0.010613892 8.09630926,0 L8.09630926,0 L8.03233129,0 Z M20.4593891,29.1731668 C16.8303345,28.1209173 12.9913613,25.7006551 9.65064969,22.3590481 L9.65064969,22.3590481 C3.03438385,15.7433502 0.354974559,7.24457098 3.79917123,3.79977335 L3.79917123,3.79977335 C4.82222914,2.77700692 6.29077422,2.29436966 8.02407607,2.29436966 L8.02407607,2.29436966 C12.1266267,2.29436966 17.7086311,4.99973281 22.3592696,9.65068133 L22.3592696,9.65068133 C25.7011605,12.9919935 28.1202354,16.8303896 29.1733659,20.4591614 L29.1733659,20.4591614 C30.1572115,23.851774 29.8149146,26.6043101 28.2092739,28.2099561 L28.2092739,28.2099561 C27.2036109,29.214443 25.7498073,29.7244995 23.9716914,29.7244995 L23.9716914,29.7244995 C22.9082419,29.7244995 21.7280399,29.5417047 20.4593891,29.1731668 L20.4593891,29.1731668 Z" id="path-1"></path>
        <linearGradient x1="0%" y1="49.9997809%" x2="100.000251%" y2="49.9997809%" id="linearGradient-3">
            <stop stop-color="#933AFB" offset="0%"></stop>
            <stop stop-color="#FB3A41" offset="100%"></stop>
        </linearGradient>
        <path d="M19.8191976,0.641221656 C15.8314069,1.79972889 11.6489172,4.42569829 8.04137975,8.03341848 L8.04137975,8.03341848 C0.29560237,15.781784 -2.27590014,25.3487639 2.18713318,29.8128233 L2.18713318,29.8128233 C3.66743599,31.2935644 5.70912108,32 8.06025966,32 L8.06025966,32 C12.7949867,32 18.7831626,29.1329454 23.9586174,23.9559584 L23.9586174,23.9559584 C31.7038048,16.207888 34.2756023,6.64179338 29.813749,2.17743884 L29.813749,2.17743884 C28.370321,0.734763885 26.3649208,0 23.9760224,0 L23.9760224,0 C22.6918936,0 21.2968454,0.212461846 19.8191976,0.641221656 M3.8105103,28.1883755 C2.21073307,26.5890099 1.87177971,23.8426454 2.85559994,20.4562397 L2.85559994,20.4562397 C3.90785983,16.8319947 6.32625808,12.9973534 9.66564186,9.65727617 L9.66564186,9.65727617 C13.0032557,6.31778907 16.837057,3.89926505 20.4596394,2.84610348 L20.4596394,2.84610348 C21.7299033,2.4775412 22.9096025,2.29458794 23.9724824,2.29458794 L23.9724824,2.29458794 C25.7436538,2.29458794 27.1906218,2.8018406 28.1894869,3.80188671 L28.1894869,3.80188671 C29.7889691,5.40125227 30.1279225,8.14791181 29.1443973,11.5334323 L29.1443973,11.5334323 C28.0921374,15.1570871 25.6737391,18.9920235 22.3346503,22.3323958 L22.3346503,22.3323958 C17.6878329,26.9814741 12.111475,29.6885922 8.01718987,29.6885922 L8.01718987,29.6885922 C6.29174325,29.6885922 4.82914035,29.2076022 3.8105103,28.1883755" id="path-4"></path>
        <linearGradient x1="6.28693549e-05%" y1="50.000248%" x2="100.000044%" y2="50.000248%" id="linearGradient-6">
            <stop stop-color="#933AFB" offset="0%"></stop>
            <stop stop-color="#FB3A41" offset="100%"></stop>
        </linearGradient>
    </defs>
    <g id="Homepage" stroke="none" stroke-width="1" fill="none" fill-rule="evenodd">
        <g id="Artboard" transform="translate(-86.000000, -604.000000)">
            <g id="Group-7" transform="translate(86.000000, 604.000000)">
                <g id="Group-6" transform="translate(46.933333, 6.400000)">
                    <g id="Group-5" fill="#FFFFFF">
                        <path d="M2.34292907,9.19481346 L2.34292907,14.528811 L6.24057141,14.528811 C7.9663826,14.528811 9.00647784,13.4894319 9.00647784,11.8103329 C9.00647784,10.1656418 7.9894252,9.19481346 6.26334915,9.19481346 L2.34292907,9.19481346 Z M2.34292907,2.60440312 L2.34292907,7.26453785 L5.96617909,7.26453785 C7.6464348,7.26453785 8.66348743,6.38502245 8.66348743,4.88881403 C8.66348743,3.41536767 7.66921254,2.60440312 6.09198638,2.60440312 L2.34292907,2.60440312 Z M0,0.377162037 L6.25196028,0.377162037 C9.18949434,0.377162037 10.9952925,1.8048196 10.9952925,4.40895805 C10.9952925,6.099438 10.2295896,7.5501223 8.70930777,8.13240755 C10.4695504,8.57812044 11.3610606,10.0513021 11.3610606,11.9932234 C11.3610606,14.8257765 9.47501068,16.7560521 6.48053227,16.7560521 L0,16.7560521 L0,0.377162037 Z" id="Fill-1"></path>
                        <path d="M22.2049606,9.58306538 L22.2049606,9.44596367 C22.2049606,7.47016395 20.8449176,6.40775804 18.8902695,6.40775804 C16.7986902,6.40775804 15.4614249,7.64140875 15.1756437,9.58306538 L22.2049606,9.58306538 Z M24.4909453,11.4678169 L15.1642548,11.4678169 C15.3011861,13.5235485 16.7300921,14.9287087 19.0160768,14.9287087 C20.6505122,14.9287087 21.7819832,14.209057 22.5135195,13.0553382 L24.2965399,14.0833363 C23.1192485,15.8423671 21.4048262,16.9389161 18.8902695,16.9389161 C15.1298233,16.9389161 12.9124367,14.4946415 12.9124367,10.7481652 C12.9124367,6.8304442 15.3356176,4.39755055 18.9588676,4.39755055 C22.2735587,4.39755055 24.4909453,6.43078477 24.4909453,9.86864983 L24.4909453,11.4678169 Z" id="Fill-3"></path>
                        <path d="M37.0947171,4.62607104 L37.0947171,16.1735816 C37.0947171,19.1204743 34.9345397,21.1764706 31.5284728,21.1764706 C28.7395238,21.1764706 26.6365556,19.8057182 25.9164081,17.4641374 L28.0765856,16.7902746 C28.5339944,18.286483 29.7568413,19.1662631 31.5854172,19.1662631 C33.6086633,19.1662631 34.8431639,18.0810951 34.8431639,16.2307514 L34.8431639,13.5922052 C34.0771961,14.9399309 32.8426955,15.7508954 30.9796882,15.7508954 C28.3051576,15.7508954 26.4993594,14.1062043 26.4993594,11.4793038 L26.4993594,4.62607104 L28.7623015,4.62607104 L28.7623015,10.6569582 C28.7623015,12.5755881 29.6538117,13.6721371 31.4712636,13.6721371 C33.5514541,13.6721371 34.8431639,12.2330985 34.8431639,10.1657212 L34.8431639,4.62607104 L37.0947171,4.62607104 Z" id="Fill-5"></path>
                        <path d="M41.0124622,10.6795614 C41.0124622,13.3522507 42.3725052,14.9286557 44.6357122,14.9286557 C46.9100432,14.9286557 48.2703511,13.3522507 48.2703511,10.6795614 C48.2703511,7.99549111 46.9100432,6.41935081 44.6357122,6.41935081 C42.3725052,6.41935081 41.0124622,7.99549111 41.0124622,10.6795614 M50.5219043,10.6795614 C50.5219043,14.4832075 48.2361845,16.9388632 44.6357122,16.9388632 C41.0466288,16.9388632 38.7492552,14.4832075 38.7492552,10.6795614 C38.7492552,6.86479903 41.0466288,4.40887864 44.6357122,4.40887864 C48.2361845,4.40887864 50.5219043,6.86479903 50.5219043,10.6795614" id="Fill-7"></path>
                        <path d="M51.9231327,4.62607104 L54.1860748,4.62607104 L54.1860748,6.55634665 C54.9406537,5.19697526 56.1521117,4.39765642 58.1064949,4.39765642 C60.8726662,4.39765642 62.4612812,6.01958552 62.4612812,8.65813173 L62.4612812,16.7561315 L60.209728,16.7561315 L60.209728,9.49185834 C60.209728,7.61848788 59.3523844,6.48779579 57.5349325,6.48779579 C55.4550069,6.48779579 54.1860748,7.99538524 54.1860748,9.9942117 L54.1860748,16.7561315 L51.9231327,16.7561315 L51.9231327,4.62607104 Z" id="Fill-9"></path>
                        <path d="M73.1340038,10.6682598 C73.1340038,8.05247566 71.9111569,6.41916554 69.7051592,6.41916554 C67.4991614,6.41916554 66.2649256,8.0297136 66.2649256,10.6682598 C66.2649256,13.3295681 67.522204,14.9284704 69.6937703,14.9284704 C71.899768,14.9284704 73.1340038,13.2837793 73.1340038,10.6682598 L73.1340038,10.6682598 Z M75.3858219,16.7560521 L73.1567815,16.7560521 L73.1567815,14.6886748 C72.4255101,16.2648151 71.1110225,16.9389426 69.2935707,16.9389426 C65.716141,16.9389426 64.0017187,14.3231585 64.0017187,10.6682598 C64.0017187,7.04750426 65.7047521,4.39757702 69.2707929,4.39757702 C71.0765911,4.39757702 72.4024675,5.08282089 73.1340038,6.56791295 L73.1340038,0 L75.3858219,0 L75.3858219,16.7560521 Z" id="Fill-11"></path>
                    </g>
                    <g id="Group-3" transform="translate(77.140450, 0.000000)" fill="#8A888C">
                        <polygon id="Fill-13" points="14.9615329 0.377056167 17.4074915 0.377056167 14.0586338 16.7562109 11.0866683 16.7562109 8.69818376 4.35194703 6.32082322 16.7562109 3.34885769 16.7562109 0 0.377056167 2.44595862 0.377056167 4.91469498 13.477945 7.29205552 0.377056167 10.1037823 0.377056167 12.4811428 13.477945"></polygon>
                        <path d="M19.5447588,10.6795614 C19.5447588,13.3522507 20.9048018,14.9286557 23.1680088,14.9286557 C25.4423398,14.9286557 26.8026477,13.3522507 26.8026477,10.6795614 C26.8026477,7.99549111 25.4423398,6.41935081 23.1680088,6.41935081 C20.9048018,6.41935081 19.5447588,7.99549111 19.5447588,10.6795614 M29.0542009,10.6795614 C29.0542009,14.4832075 26.7684811,16.9388632 23.1680088,16.9388632 C19.5789254,16.9388632 17.2815518,14.4832075 17.2815518,10.6795614 C17.2815518,6.86479903 19.5789254,4.40887864 23.1680088,4.40887864 C26.7684811,4.40887864 29.0542009,6.86479903 29.0542009,10.6795614" id="Fill-15"></path>
                        <path d="M30.5268084,4.62607104 L32.8014042,4.62607104 L32.8014042,6.94462504 C33.5440646,5.19697526 35.2015425,4.51173139 36.9845629,4.51173139 C37.65889,4.51173139 38.2762727,4.60330898 38.8820017,4.76317275 L38.6189983,6.92186298 C37.9904915,6.78476127 37.4075403,6.70482939 36.8018113,6.70482939 C34.1500584,6.70482939 32.8014042,8.2468266 32.8014042,10.8967538 L32.8014042,16.7561315 L30.5268084,16.7561315 L30.5268084,4.62607104 Z" id="Fill-17"></path>
                        <path d="M48.4323114,10.6682598 C48.4323114,8.05247566 47.2094645,6.41916554 45.0034668,6.41916554 C42.797469,6.41916554 41.5632332,8.0297136 41.5632332,10.6682598 C41.5632332,13.3295681 42.8205116,14.9284704 44.9920779,14.9284704 C47.1980757,14.9284704 48.4323114,13.2837793 48.4323114,10.6682598 L48.4323114,10.6682598 Z M50.6841295,16.7560521 L48.4550891,16.7560521 L48.4550891,14.6886748 C47.7238177,16.2648151 46.4093301,16.9389426 44.5918783,16.9389426 C41.0144486,16.9389426 39.3000263,14.3231585 39.3000263,10.6682598 C39.3000263,7.04750426 41.0030597,4.39757702 44.5691005,4.39757702 C46.3748987,4.39757702 47.7007751,5.08282089 48.4323114,6.56791295 L48.4323114,0 L50.6841295,0 L50.6841295,16.7560521 Z" id="Fill-19"></path>
                        <path d="M61.2081081,8.34957348 C60.7051438,7.04737192 59.4936858,6.31633925 57.6306785,6.31633925 C55.8934784,6.31633925 54.8989387,6.96744004 54.8989387,7.96129509 C54.8989387,9.25185094 56.533374,9.44612248 58.3736036,9.65177504 C60.7509642,9.91433275 63.4713151,10.2112982 63.4713151,12.9525384 C63.4713151,15.3968131 61.2880951,16.9388103 58.2364075,16.9388103 C55.5388343,16.9388103 53.2531144,15.7623294 52.4071597,13.5123263 L54.4873502,12.7355048 C55.0703014,14.3460529 56.6475276,15.0312967 58.3163944,15.0312967 C60.0422056,15.0312967 61.2081081,14.3005287 61.2081081,13.2267418 C61.2081081,11.947567 59.550895,11.7532954 57.6648451,11.5134998 C55.2874845,11.2165343 52.6473854,10.862399 52.6473854,8.14392092 C52.6473854,5.76819709 54.6589778,4.39744468 57.7334432,4.39744468 C60.7167976,4.39744468 62.5570272,5.69964624 63.2310894,7.59577876 L61.2081081,8.34957348 Z" id="Fill-21"></path>
                    </g>
                </g>
                <g id="Group-12">
                    <g id="Group-26">
                        <mask id="mask-2" fill="white">
                            <use xlink:href="#path-1"></use>
                        </mask>
                        <g id="Clip-25"></g>
                        <path d="M8.03233129,0 C5.69462924,0.00737075836 3.66325489,0.714963561 2.18940288,2.18970489 L2.18940288,2.18970489 C0.71319224,3.66621521 0.00560175799,5.69995485 0,8.04090771 L0,8.04090771 L0,8.09663064 C0.0109086866,12.8286575 2.87517599,18.8036891 8.04088134,23.9691165 L8.04088134,23.9691165 C11.6484135,27.5778398 15.8332215,30.2027143 19.8243267,31.3602182 L19.8243267,31.3602182 C21.3005373,31.7883118 22.6939009,32 23.9769983,32 L23.9769983,32 C26.36718,32 28.374968,31.2638087 29.8190422,29.8200245 L29.8190422,29.8200245 C32.0382229,27.6008366 32.5863107,24.0507845 31.3601153,19.8243917 L31.3601153,19.8243917 C30.2029101,15.8335683 27.5780442,11.6490413 23.9690379,8.04061288 L23.9690379,8.04061288 C18.8033326,2.87430093 12.8286154,0.010613892 8.09630926,0 L8.09630926,0 L8.03233129,0 Z M20.4593891,29.1731668 C16.8303345,28.1209173 12.9913613,25.7006551 9.65064969,22.3590481 L9.65064969,22.3590481 C3.03438385,15.7433502 0.354974559,7.24457098 3.79917123,3.79977335 L3.79917123,3.79977335 C4.82222914,2.77700692 6.29077422,2.29436966 8.02407607,2.29436966 L8.02407607,2.29436966 C12.1266267,2.29436966 17.7086311,4.99973281 22.3592696,9.65068133 L22.3592696,9.65068133 C25.7011605,12.9919935 28.1202354,16.8303896 29.1733659,20.4591614 L29.1733659,20.4591614 C30.1572115,23.851774 29.8149146,26.6043101 28.2092739,28.2099561 L28.2092739,28.2099561 C27.2036109,29.214443 25.7498073,29.7244995 23.9716914,29.7244995 L23.9716914,29.7244995 C22.9082419,29.7244995 21.7280399,29.5417047 20.4593891,29.1731668 L20.4593891,29.1731668 Z" id="Fill-24" fill="url(#linearGradient-3)" mask="url(#mask-2)"></path>
                    </g>
                    <g id="Group-29">
                        <mask id="mask-5" fill="white">
                            <use xlink:href="#path-4"></use>
                        </mask>
                        <g id="Clip-28"></g>
                        <path d="M19.8191976,0.641221656 C15.8314069,1.79972889 11.6489172,4.42569829 8.04137975,8.03341848 L8.04137975,8.03341848 C0.29560237,15.781784 -2.27590014,25.3487639 2.18713318,29.8128233 L2.18713318,29.8128233 C3.66743599,31.2935644 5.70912108,32 8.06025966,32 L8.06025966,32 C12.7949867,32 18.7831626,29.1329454 23.9586174,23.9559584 L23.9586174,23.9559584 C31.7038048,16.207888 34.2756023,6.64179338 29.813749,2.17743884 L29.813749,2.17743884 C28.370321,0.734763885 26.3649208,0 23.9760224,0 L23.9760224,0 C22.6918936,0 21.2968454,0.212461846 19.8191976,0.641221656 M3.8105103,28.1883755 C2.21073307,26.5890099 1.87177971,23.8426454 2.85559994,20.4562397 L2.85559994,20.4562397 C3.90785983,16.8319947 6.32625808,12.9973534 9.66564186,9.65727617 L9.66564186,9.65727617 C13.0032557,6.31778907 16.837057,3.89926505 20.4596394,2.84610348 L20.4596394,2.84610348 C21.7299033,2.4775412 22.9096025,2.29458794 23.9724824,2.29458794 L23.9724824,2.29458794 C25.7436538,2.29458794 27.1906218,2.8018406 28.1894869,3.80188671 L28.1894869,3.80188671 C29.7889691,5.40125227 30.1279225,8.14791181 29.1443973,11.5334323 L29.1443973,11.5334323 C28.0921374,15.1570871 25.6737391,18.9920235 22.3346503,22.3323958 L22.3346503,22.3323958 C17.6878329,26.9814741 12.111475,29.6885922 8.01718987,29.6885922 L8.01718987,29.6885922 C6.29174325,29.6885922 4.82914035,29.2076022 3.8105103,28.1883755" id="Fill-27" fill="url(#linearGradient-6)" mask="url(#mask-5)"></path>
                    </g>
                </g>
            </g>
        </g>
    </g>
</svg>