<?xml version="1.0" encoding="UTF-8"?>
<svg width="32px" height="32px" viewBox="0 0 32 32" version="1.1" xmlns="http://www.w3.org/2000/svg" xmlns:xlink="http://www.w3.org/1999/xlink">
    <title>Group 7</title>
    <defs>
        <path d="M8.03233129,0 C5.69462924,0.00737075836 3.66325489,0.714963561 2.18940288,2.18970489 L2.18940288,2.18970489 C0.71319224,3.66621521 0.00560175799,5.69995485 0,8.04090771 L0,8.04090771 L0,8.09663064 C0.0109086866,12.8286575 2.87517599,18.8036891 8.04088134,23.9691165 L8.04088134,23.9691165 C11.6484135,27.5778398 15.8332215,30.2027143 19.8243267,31.3602182 L19.8243267,31.3602182 C21.3005373,31.7883118 22.6939009,32 23.9769983,32 L23.9769983,32 C26.36718,32 28.374968,31.2638087 29.8190422,29.8200245 L29.8190422,29.8200245 C32.0382229,27.6008366 32.5863107,24.0507845 31.3601153,19.8243917 L31.3601153,19.8243917 C30.2029101,15.8335683 27.5780442,11.6490413 23.9690379,8.04061288 L23.9690379,8.04061288 C18.8033326,2.87430093 12.8286154,0.010613892 8.09630926,0 L8.09630926,0 L8.03233129,0 Z M20.4593891,29.1731668 C16.8303345,28.1209173 12.9913613,25.7006551 9.65064969,22.3590481 L9.65064969,22.3590481 C3.03438385,15.7433502 0.354974559,7.24457098 3.79917123,3.79977335 L3.79917123,3.79977335 C4.82222914,2.77700692 6.29077422,2.29436966 8.02407607,2.29436966 L8.02407607,2.29436966 C12.1266267,2.29436966 17.7086311,4.99973281 22.3592696,9.65068133 L22.3592696,9.65068133 C25.7011605,12.9919935 28.1202354,16.8303896 29.1733659,20.4591614 L29.1733659,20.4591614 C30.1572115,23.851774 29.8149146,26.6043101 28.2092739,28.2099561 L28.2092739,28.2099561 C27.2036109,29.214443 25.7498073,29.7244995 23.9716914,29.7244995 L23.9716914,29.7244995 C22.9082419,29.7244995 21.7280399,29.5417047 20.4593891,29.1731668 L20.4593891,29.1731668 Z" id="path-1"></path>
        <linearGradient x1="0%" y1="49.9997809%" x2="100.000251%" y2="49.9997809%" id="linearGradient-3">
            <stop stop-color="#933AFB" offset="0%"></stop>
            <stop stop-color="#FB3A41" offset="100%"></stop>
        </linearGradient>
        <path d="M19.8191976,0.641221656 C15.8314069,1.79972889 11.6489172,4.42569829 8.04137975,8.03341848 L8.04137975,8.03341848 C0.29560237,15.781784 -2.27590014,25.3487639 2.18713318,29.8128233 L2.18713318,29.8128233 C3.66743599,31.2935644 5.70912108,32 8.06025966,32 L8.06025966,32 C12.7949867,32 18.7831626,29.1329454 23.9586174,23.9559584 L23.9586174,23.9559584 C31.7038048,16.207888 34.2756023,6.64179338 29.813749,2.17743884 L29.813749,2.17743884 C28.370321,0.734763885 26.3649208,0 23.9760224,0 L23.9760224,0 C22.6918936,0 21.2968454,0.212461846 19.8191976,0.641221656 M3.8105103,28.1883755 C2.21073307,26.5890099 1.87177971,23.8426454 2.85559994,20.4562397 L2.85559994,20.4562397 C3.90785983,16.8319947 6.32625808,12.9973534 9.66564186,9.65727617 L9.66564186,9.65727617 C13.0032557,6.31778907 16.837057,3.89926505 20.4596394,2.84610348 L20.4596394,2.84610348 C21.7299033,2.4775412 22.9096025,2.29458794 23.9724824,2.29458794 L23.9724824,2.29458794 C25.7436538,2.29458794 27.1906218,2.8018406 28.1894869,3.80188671 L28.1894869,3.80188671 C29.7889691,5.40125227 30.1279225,8.14791181 29.1443973,11.5334323 L29.1443973,11.5334323 C28.0921374,15.1570871 25.6737391,18.9920235 22.3346503,22.3323958 L22.3346503,22.3323958 C17.6878329,26.9814741 12.111475,29.6885922 8.01718987,29.6885922 L8.01718987,29.6885922 C6.29174325,29.6885922 4.82914035,29.2076022 3.8105103,28.1883755" id="path-4"></path>
        <linearGradient x1="6.28693549e-05%" y1="50.000248%" x2="100.000044%" y2="50.000248%" id="linearGradient-6">
            <stop stop-color="#933AFB" offset="0%"></stop>
            <stop stop-color="#FB3A41" offset="100%"></stop>
        </linearGradient>
    </defs>
    <g id="Homepage" stroke="none" stroke-width="1" fill="none" fill-rule="evenodd">
        <g id="Artboard" transform="translate(-86.000000, -604.000000)">
            <g id="Group-7" transform="translate(86.000000, 604.000000)">
                <g id="Group-12">
                    <g id="Group-26">
                        <mask id="mask-2" fill="white">
                            <use xlink:href="#path-1"></use>
                        </mask>
                        <g id="Clip-25"></g>
                        <path d="M8.03233129,0 C5.69462924,0.00737075836 3.66325489,0.714963561 2.18940288,2.18970489 L2.18940288,2.18970489 C0.71319224,3.66621521 0.00560175799,5.69995485 0,8.04090771 L0,8.04090771 L0,8.09663064 C0.0109086866,12.8286575 2.87517599,18.8036891 8.04088134,23.9691165 L8.04088134,23.9691165 C11.6484135,27.5778398 15.8332215,30.2027143 19.8243267,31.3602182 L19.8243267,31.3602182 C21.3005373,31.7883118 22.6939009,32 23.9769983,32 L23.9769983,32 C26.36718,32 28.374968,31.2638087 29.8190422,29.8200245 L29.8190422,29.8200245 C32.0382229,27.6008366 32.5863107,24.0507845 31.3601153,19.8243917 L31.3601153,19.8243917 C30.2029101,15.8335683 27.5780442,11.6490413 23.9690379,8.04061288 L23.9690379,8.04061288 C18.8033326,2.87430093 12.8286154,0.010613892 8.09630926,0 L8.09630926,0 L8.03233129,0 Z M20.4593891,29.1731668 C16.8303345,28.1209173 12.9913613,25.7006551 9.65064969,22.3590481 L9.65064969,22.3590481 C3.03438385,15.7433502 0.354974559,7.24457098 3.79917123,3.79977335 L3.79917123,3.79977335 C4.82222914,2.77700692 6.29077422,2.29436966 8.02407607,2.29436966 L8.02407607,2.29436966 C12.1266267,2.29436966 17.7086311,4.99973281 22.3592696,9.65068133 L22.3592696,9.65068133 C25.7011605,12.9919935 28.1202354,16.8303896 29.1733659,20.4591614 L29.1733659,20.4591614 C30.1572115,23.851774 29.8149146,26.6043101 28.2092739,28.2099561 L28.2092739,28.2099561 C27.2036109,29.214443 25.7498073,29.7244995 23.9716914,29.7244995 L23.9716914,29.7244995 C22.9082419,29.7244995 21.7280399,29.5417047 20.4593891,29.1731668 L20.4593891,29.1731668 Z" id="Fill-24" fill="url(#linearGradient-3)" mask="url(#mask-2)"></path>
                    </g>
                    <g id="Group-29">
                        <mask id="mask-5" fill="white">
                            <use xlink:href="#path-4"></use>
                        </mask>
                        <g id="Clip-28"></g>
                        <path d="M19.8191976,0.641221656 C15.8314069,1.79972889 11.6489172,4.42569829 8.04137975,8.03341848 L8.04137975,8.03341848 C0.29560237,15.781784 -2.27590014,25.3487639 2.18713318,29.8128233 L2.18713318,29.8128233 C3.66743599,31.2935644 5.70912108,32 8.06025966,32 L8.06025966,32 C12.7949867,32 18.7831626,29.1329454 23.9586174,23.9559584 L23.9586174,23.9559584 C31.7038048,16.207888 34.2756023,6.64179338 29.813749,2.17743884 L29.813749,2.17743884 C28.370321,0.734763885 26.3649208,0 23.9760224,0 L23.9760224,0 C22.6918936,0 21.2968454,0.212461846 19.8191976,0.641221656 M3.8105103,28.1883755 C2.21073307,26.5890099 1.87177971,23.8426454 2.85559994,20.4562397 L2.85559994,20.4562397 C3.90785983,16.8319947 6.32625808,12.9973534 9.66564186,9.65727617 L9.66564186,9.65727617 C13.0032557,6.31778907 16.837057,3.89926505 20.4596394,2.84610348 L20.4596394,2.84610348 C21.7299033,2.4775412 22.9096025,2.29458794 23.9724824,2.29458794 L23.9724824,2.29458794 C25.7436538,2.29458794 27.1906218,2.8018406 28.1894869,3.80188671 L28.1894869,3.80188671 C29.7889691,5.40125227 30.1279225,8.14791181 29.1443973,11.5334323 L29.1443973,11.5334323 C28.0921374,15.1570871 25.6737391,18.9920235 22.3346503,22.3323958 L22.3346503,22.3323958 C17.6878329,26.9814741 12.111475,29.6885922 8.01718987,29.6885922 L8.01718987,29.6885922 C6.29174325,29.6885922 4.82914035,29.2076022 3.8105103,28.1883755" id="Fill-27" fill="url(#linearGradient-6)" mask="url(#mask-5)"></path>
                    </g>
                </g>
            </g>
        </g>
    </g>
</svg>
